<?xml version="1.0" encoding="utf-8"?>
<!-- Generator: Adobe Illustrator 16.0.4, SVG Export Plug-In . SVG Version: 6.00 Build 0)  -->
<!DOCTYPE svg PUBLIC "-//W3C//DTD SVG 1.1//EN" "http://www.w3.org/Graphics/SVG/1.1/DTD/svg11.dtd">
<svg version="1.1" id="Layer_1" xmlns="http://www.w3.org/2000/svg" xmlns:xlink="http://www.w3.org/1999/xlink" x="0px" y="0px"
	 width="139.91px" height="415.531px" viewBox="0 0 139.91 415.531" enable-background="new 0 0 139.91 415.531"
	 xml:space="preserve">
<g>
	<g>
		<polygon fill="#4D4D4F" points="119.91,415.465 79.91,415.465 99.91,380.84 139.91,380.84 		"/>
		<polygon fill="#EC008C" points="119.91,346.215 79.91,346.215 99.91,380.84 139.91,380.84 		"/>
		<polygon fill="#F4911F" points="99.986,380.73 79.986,415.371 60,380.738 80,346.098 		"/>
		<polygon fill="#4D4D4F" points="119.91,346.211 79.91,346.211 99.91,311.586 139.91,311.586 		"/>
		<polygon fill="#FFF200" points="119.91,276.961 79.91,276.961 99.91,311.586 139.91,311.586 		"/>
		<polygon fill="#EC008C" points="99.986,311.477 79.986,346.117 60,311.484 80,276.844 		"/>
		<polygon fill="#4D4D4F" points="59.91,380.838 19.91,380.838 39.91,346.213 79.91,346.213 		"/>
		<polygon fill="#FFF200" points="59.91,311.588 19.91,311.588 39.91,346.213 79.91,346.213 		"/>
		<polygon fill="#F4911F" points="39.986,346.104 19.986,380.744 0,346.111 20,311.471 		"/>
		<polygon fill="#4D4D4F" points="59.91,311.584 19.91,311.584 39.91,276.959 79.91,276.959 		"/>
		<polygon fill="#F4911F" points="59.91,242.334 19.91,242.334 39.91,276.959 79.91,276.959 		"/>
		<polygon fill="#EC008C" points="39.986,276.85 19.986,311.49 0,276.857 20,242.217 		"/>
		<polygon fill="#4D4D4F" points="119.91,277.151 79.91,277.151 99.91,242.526 139.91,242.526 		"/>
		<polygon fill="#F4911F" points="119.91,207.901 79.91,207.901 99.91,242.526 139.91,242.526 		"/>
		<polygon fill="#FFF200" points="99.986,242.417 79.986,277.058 60,242.425 80,207.784 		"/>
		<polygon fill="#4D4D4F" points="59.91,242.524 19.91,242.524 39.91,207.899 79.91,207.899 		"/>
		<polygon fill="#EC008C" points="59.91,173.274 19.91,173.274 39.91,207.899 79.91,207.899 		"/>
		<polygon fill="#FFF200" points="39.986,207.79 19.986,242.431 0,207.798 20,173.157 		"/>
	</g>
	<g>
		<polygon fill="#4D4D4F" points="119.91,207.681 79.91,207.681 99.91,173.056 139.91,173.056 		"/>
		<polygon fill="#EC008C" points="119.91,138.431 79.91,138.431 99.91,173.056 139.91,173.056 		"/>
		<polygon fill="#F4911F" points="99.986,172.947 79.986,207.587 60,172.955 80,138.313 		"/>
		<polygon fill="#4D4D4F" points="119.91,138.427 79.91,138.427 99.91,103.802 139.91,103.802 		"/>
		<polygon fill="#FFF200" points="119.91,69.177 79.91,69.177 99.91,103.802 139.91,103.802 		"/>
		<polygon fill="#EC008C" points="99.986,103.693 79.986,138.333 60,103.701 80,69.06 		"/>
		<polygon fill="#4D4D4F" points="59.91,173.054 19.91,173.054 39.91,138.429 79.91,138.429 		"/>
		<polygon fill="#FFF200" points="59.91,103.804 19.91,103.804 39.91,138.429 79.91,138.429 		"/>
		<polygon fill="#F4911F" points="39.986,138.32 19.986,172.96 0,138.328 20,103.687 		"/>
		<polygon fill="#4D4D4F" points="59.91,103.8 19.91,103.8 39.91,69.175 79.91,69.175 		"/>
		<polygon fill="#F4911F" points="59.91,34.55 19.91,34.55 39.91,69.175 79.91,69.175 		"/>
		<polygon fill="#EC008C" points="39.986,69.066 19.986,103.706 0,69.074 20,34.433 		"/>
		<polygon fill="#4D4D4F" points="119.91,69.367 79.91,69.367 99.91,34.742 139.91,34.742 		"/>
		<polygon fill="#F4911F" points="119.91,0.117 79.91,0.117 99.91,34.742 139.91,34.742 		"/>
		<polygon fill="#FFF200" points="99.986,34.634 79.986,69.273 60,34.642 80,0 		"/>
		<polygon fill="#4D4D4F" points="59.91,34.74 19.91,34.74 39.91,0.115 79.91,0.115 		"/>
		<line fill="#EC008C" x1="39.91" y1="0.115" x2="79.91" y2="0.115"/>
		<polyline fill="#FFF200" points="39.986,0.007 19.986,34.646 0,0.015 		"/>
	</g>
	<polygon fill="#EC008C" points="60.11,380.84 20.11,380.84 40.11,415.465 80.109,415.465 	"/>
	<polygon fill="#FFF200" points="40.187,415.523 0.2,415.531 20.2,380.891 	"/>
</g>
</svg>
